<svg width="208" height="67" viewBox="0 0 208 67" fill="none" xmlns="http://www.w3.org/2000/svg">
<rect x="0.237708" y="0.237708" width="207.282" height="66.0829" rx="14.9756" fill="white"/>
<rect x="0.237708" y="0.237708" width="207.282" height="66.0829" rx="14.9756" stroke="#D6DCE5" stroke-width="0.475417"/>
<rect x="12.3608" y="12.3605" width="41.8367" height="41.8367" rx="9.50834" fill="url(#paint0_linear_15_900)"/>
<path d="M41.2303 32.879C41.2448 31.7542 41.5436 30.6513 42.0989 29.673C42.6541 28.6947 43.4479 27.8727 44.4062 27.2835C43.7974 26.4141 42.9942 25.6986 42.0606 25.1938C41.1269 24.689 40.0884 24.4089 39.0275 24.3758C36.7645 24.1382 34.5706 25.7299 33.4174 25.7299C32.2419 25.7299 30.4663 24.3993 28.5544 24.4387C27.3177 24.4786 26.1124 24.8383 25.056 25.4825C23.9997 26.1268 23.1282 27.0337 22.5265 28.1149C19.9201 32.6274 21.8642 39.2592 24.3609 42.9067C25.61 44.6928 27.0699 46.688 28.9801 46.6172C30.8494 46.5397 31.5475 45.4252 33.8039 45.4252C36.0393 45.4252 36.6943 46.6172 38.6433 46.5722C40.6491 46.5397 41.9128 44.7782 43.1182 42.9752C44.0157 41.7025 44.7063 40.2959 45.1644 38.8076C43.9991 38.3147 43.0047 37.4897 42.3051 36.4354C41.6055 35.3812 41.2317 34.1443 41.2303 32.879Z" fill="white"/>
<path d="M37.5495 21.9768C38.6432 20.6639 39.182 18.9764 39.0515 17.2726C37.3806 17.4481 35.8372 18.2467 34.7288 19.5092C34.1869 20.126 33.7718 20.8435 33.5073 21.6208C33.2429 22.3981 33.1342 23.2199 33.1875 24.0392C34.0232 24.0478 34.85 23.8666 35.6056 23.5094C36.3612 23.1521 37.0258 22.6281 37.5495 21.9768Z" fill="white"/>
<path d="M69.6091 20.8322H66.5586V11.4092H69.7057C70.629 11.4092 71.422 11.5978 72.0845 11.9751C72.7471 12.3493 73.2547 12.8877 73.6075 13.5901C73.9633 14.2895 74.1412 15.1284 74.1412 16.1069C74.1412 17.0885 73.9618 17.932 73.6029 18.6375C73.2471 19.343 72.7317 19.8859 72.0569 20.2663C71.3821 20.6436 70.5661 20.8322 69.6091 20.8322ZM67.9803 19.5899H69.5309C70.2487 19.5899 70.8453 19.455 71.3207 19.185C71.7962 18.912 72.152 18.5179 72.3882 18.0026C72.6244 17.4842 72.7425 16.8523 72.7425 16.1069C72.7425 15.3677 72.6244 14.7404 72.3882 14.2251C72.1551 13.7097 71.8069 13.3186 71.3437 13.0518C70.8806 12.7849 70.3054 12.6515 69.6183 12.6515H67.9803V19.5899Z" fill="black"/>
<path d="M78.7757 20.9749C78.1131 20.9749 77.5349 20.823 77.041 20.5193C76.5472 20.2157 76.1638 19.7908 75.8908 19.2448C75.6178 18.6988 75.4813 18.0608 75.4813 17.3308C75.4813 16.5977 75.6178 15.9566 75.8908 15.4075C76.1638 14.8585 76.5472 14.4321 77.041 14.1284C77.5349 13.8248 78.1131 13.6729 78.7757 13.6729C79.4382 13.6729 80.0164 13.8248 80.5103 14.1284C81.0041 14.4321 81.3875 14.8585 81.6605 15.4075C81.9335 15.9566 82.07 16.5977 82.07 17.3308C82.07 18.0608 81.9335 18.6988 81.6605 19.2448C81.3875 19.7908 81.0041 20.2157 80.5103 20.5193C80.0164 20.823 79.4382 20.9749 78.7757 20.9749ZM78.7803 19.82C79.2097 19.82 79.5655 19.7065 79.8477 19.4795C80.1299 19.2525 80.3385 18.9504 80.4735 18.5731C80.6115 18.1958 80.6805 17.7802 80.6805 17.3262C80.6805 16.8753 80.6115 16.4612 80.4735 16.0839C80.3385 15.7035 80.1299 15.3983 79.8477 15.1683C79.5655 14.9382 79.2097 14.8232 78.7803 14.8232C78.3478 14.8232 77.9889 14.9382 77.7036 15.1683C77.4214 15.3983 77.2113 15.7035 77.0732 16.0839C76.9383 16.4612 76.8708 16.8753 76.8708 17.3262C76.8708 17.7802 76.9383 18.1958 77.0732 18.5731C77.2113 18.9504 77.4214 19.2525 77.7036 19.4795C77.9889 19.7065 78.3478 19.82 78.7803 19.82Z" fill="black"/>
<path d="M84.9227 20.8322L82.843 13.7649H84.2648L85.6497 18.955H85.7187L87.1082 13.7649H88.53L89.9103 18.932H89.9793L91.3551 13.7649H92.7768L90.7017 20.8322H89.2984L87.8628 15.7296H87.757L86.3215 20.8322H84.9227Z" fill="black"/>
<path d="M95.4581 16.636V20.8322H94.0823V13.7649H95.4029V14.9152H95.4903C95.6529 14.541 95.9075 14.2404 96.2541 14.0134C96.6038 13.7864 97.0439 13.6729 97.5746 13.6729C98.0562 13.6729 98.4779 13.7741 98.8399 13.9766C99.2018 14.176 99.4825 14.4735 99.6819 14.8692C99.8813 15.2649 99.981 15.7541 99.981 16.337V20.8322H98.6052V16.5026C98.6052 15.9903 98.4718 15.59 98.2049 15.3017C97.9381 15.0103 97.5715 14.8646 97.1053 14.8646C96.7863 14.8646 96.5025 14.9336 96.2541 15.0717C96.0087 15.2097 95.8139 15.4121 95.6697 15.679C95.5286 15.9428 95.4581 16.2618 95.4581 16.636Z" fill="black"/>
<path d="M103.202 11.4092V20.8322H101.826V11.4092H103.202Z" fill="black"/>
<path d="M108.029 20.9749C107.367 20.9749 106.789 20.823 106.295 20.5193C105.801 20.2157 105.418 19.7908 105.145 19.2448C104.872 18.6988 104.735 18.0608 104.735 17.3308C104.735 16.5977 104.872 15.9566 105.145 15.4075C105.418 14.8585 105.801 14.4321 106.295 14.1284C106.789 13.8248 107.367 13.6729 108.029 13.6729C108.692 13.6729 109.27 13.8248 109.764 14.1284C110.258 14.4321 110.641 14.8585 110.914 15.4075C111.187 15.9566 111.324 16.5977 111.324 17.3308C111.324 18.0608 111.187 18.6988 110.914 19.2448C110.641 19.7908 110.258 20.2157 109.764 20.5193C109.27 20.823 108.692 20.9749 108.029 20.9749ZM108.034 19.82C108.463 19.82 108.819 19.7065 109.101 19.4795C109.384 19.2525 109.592 18.9504 109.727 18.5731C109.865 18.1958 109.934 17.7802 109.934 17.3262C109.934 16.8753 109.865 16.4612 109.727 16.0839C109.592 15.7035 109.384 15.3983 109.101 15.1683C108.819 14.9382 108.463 14.8232 108.034 14.8232C107.602 14.8232 107.243 14.9382 106.957 15.1683C106.675 15.3983 106.465 15.7035 106.327 16.0839C106.192 16.4612 106.125 16.8753 106.125 17.3262C106.125 17.7802 106.192 18.1958 106.327 18.5731C106.465 18.9504 106.675 19.2525 106.957 19.4795C107.243 19.7065 107.602 19.82 108.034 19.82Z" fill="black"/>
<path d="M114.916 20.9887C114.468 20.9887 114.063 20.9058 113.701 20.7402C113.339 20.5715 113.053 20.3276 112.841 20.0086C112.632 19.6896 112.528 19.2985 112.528 18.8353C112.528 18.4366 112.605 18.1084 112.758 17.8507C112.912 17.5931 113.119 17.3891 113.379 17.2388C113.64 17.0885 113.931 16.975 114.254 16.8983C114.576 16.8216 114.904 16.7633 115.238 16.7234C115.661 16.6744 116.005 16.6345 116.269 16.6038C116.533 16.5701 116.724 16.5164 116.844 16.4428C116.964 16.3692 117.023 16.2495 117.023 16.0839V16.0517C117.023 15.6499 116.91 15.3385 116.683 15.1177C116.459 14.8968 116.125 14.7864 115.68 14.7864C115.217 14.7864 114.852 14.8891 114.585 15.0947C114.321 15.2971 114.139 15.5226 114.037 15.771L112.744 15.4765C112.898 15.0471 113.122 14.7005 113.416 14.4367C113.714 14.1698 114.056 13.9766 114.442 13.857C114.829 13.7343 115.235 13.6729 115.661 13.6729C115.944 13.6729 116.243 13.7067 116.559 13.7741C116.878 13.8386 117.175 13.9582 117.451 14.133C117.73 14.3079 117.959 14.5579 118.137 14.883C118.315 15.2051 118.404 15.6238 118.404 16.1391V20.8322H117.06V19.866H117.005C116.916 20.0439 116.783 20.2187 116.605 20.3905C116.427 20.5623 116.198 20.7049 115.919 20.8184C115.64 20.9319 115.306 20.9887 114.916 20.9887ZM115.215 19.8844C115.596 19.8844 115.921 19.8092 116.191 19.6589C116.464 19.5086 116.671 19.3123 116.812 19.07C116.956 18.8246 117.028 18.5624 117.028 18.2832V17.3722C116.979 17.4213 116.884 17.4673 116.743 17.5102C116.605 17.5501 116.447 17.5854 116.269 17.6161C116.091 17.6437 115.918 17.6697 115.749 17.6943C115.58 17.7157 115.439 17.7342 115.326 17.7495C115.059 17.7832 114.815 17.84 114.594 17.9197C114.376 17.9995 114.201 18.1145 114.07 18.2648C113.941 18.412 113.876 18.6084 113.876 18.8538C113.876 19.1942 114.002 19.4519 114.254 19.6267C114.505 19.7985 114.826 19.8844 115.215 19.8844Z" fill="black"/>
<path d="M122.882 20.9703C122.311 20.9703 121.802 20.8246 121.354 20.5332C120.909 20.2387 120.56 19.82 120.305 19.2771C120.054 18.7311 119.928 18.0762 119.928 17.3124C119.928 16.5486 120.055 15.8952 120.31 15.3523C120.567 14.8094 120.92 14.3938 121.368 14.1054C121.816 13.8171 122.323 13.6729 122.891 13.6729C123.33 13.6729 123.682 13.7465 123.949 13.8938C124.219 14.0379 124.428 14.2066 124.575 14.3999C124.725 14.5931 124.842 14.7634 124.925 14.9106H125.007V11.4092H126.383V20.8322H125.04V19.7326H124.925C124.842 19.8829 124.722 20.0546 124.566 20.2479C124.412 20.4411 124.201 20.6098 123.931 20.754C123.661 20.8982 123.311 20.9703 122.882 20.9703ZM123.185 19.797C123.581 19.797 123.915 19.6927 124.188 19.4841C124.465 19.2725 124.673 18.9795 124.814 18.6053C124.958 18.2311 125.03 17.7955 125.03 17.2986C125.03 16.8078 124.96 16.3784 124.819 16.0103C124.678 15.6422 124.471 15.3554 124.198 15.1499C123.925 14.9444 123.587 14.8416 123.185 14.8416C122.771 14.8416 122.426 14.949 122.15 15.1637C121.874 15.3784 121.666 15.6713 121.524 16.0425C121.386 16.4136 121.317 16.8323 121.317 17.2986C121.317 17.771 121.388 18.1958 121.529 18.5731C121.67 18.9504 121.879 19.2494 122.155 19.4703C122.434 19.6881 122.777 19.797 123.185 19.797Z" fill="black"/>
<path d="M134.753 20.9749C134.09 20.9749 133.512 20.823 133.018 20.5193C132.524 20.2157 132.141 19.7908 131.868 19.2448C131.595 18.6988 131.458 18.0608 131.458 17.3308C131.458 16.5977 131.595 15.9566 131.868 15.4075C132.141 14.8585 132.524 14.4321 133.018 14.1284C133.512 13.8248 134.09 13.6729 134.753 13.6729C135.415 13.6729 135.993 13.8248 136.487 14.1284C136.981 14.4321 137.364 14.8585 137.637 15.4075C137.91 15.9566 138.047 16.5977 138.047 17.3308C138.047 18.0608 137.91 18.6988 137.637 19.2448C137.364 19.7908 136.981 20.2157 136.487 20.5193C135.993 20.823 135.415 20.9749 134.753 20.9749ZM134.757 19.82C135.187 19.82 135.542 19.7065 135.825 19.4795C136.107 19.2525 136.315 18.9504 136.45 18.5731C136.588 18.1958 136.657 17.7802 136.657 17.3262C136.657 16.8753 136.588 16.4612 136.45 16.0839C136.315 15.7035 136.107 15.3983 135.825 15.1683C135.542 14.9382 135.187 14.8232 134.757 14.8232C134.325 14.8232 133.966 14.9382 133.681 15.1683C133.398 15.3983 133.188 15.7035 133.05 16.0839C132.915 16.4612 132.848 16.8753 132.848 17.3262C132.848 17.7802 132.915 18.1958 133.05 18.5731C133.188 18.9504 133.398 19.2525 133.681 19.4795C133.966 19.7065 134.325 19.82 134.757 19.82Z" fill="black"/>
<path d="M140.958 16.636V20.8322H139.583V13.7649H140.903V14.9152H140.991C141.153 14.541 141.408 14.2404 141.754 14.0134C142.104 13.7864 142.544 13.6729 143.075 13.6729C143.556 13.6729 143.978 13.7741 144.34 13.9766C144.702 14.176 144.983 14.4735 145.182 14.8692C145.382 15.2649 145.481 15.7541 145.481 16.337V20.8322H144.105V16.5026C144.105 15.9903 143.972 15.59 143.705 15.3017C143.438 15.0103 143.072 14.8646 142.606 14.8646C142.286 14.8646 142.003 14.9336 141.754 15.0717C141.509 15.2097 141.314 15.4121 141.17 15.679C141.029 15.9428 140.958 16.2618 140.958 16.636Z" fill="black"/>
<path d="M154.054 13.7649V14.8692H150.194V13.7649H154.054ZM151.229 12.0717H152.605V18.7571C152.605 19.024 152.645 19.2249 152.724 19.3599C152.804 19.4918 152.907 19.5823 153.033 19.6313C153.162 19.6773 153.301 19.7004 153.451 19.7004C153.562 19.7004 153.658 19.6927 153.741 19.6773C153.824 19.662 153.889 19.6497 153.935 19.6405L154.183 20.777C154.103 20.8077 153.99 20.8384 153.843 20.869C153.695 20.9028 153.511 20.9212 153.29 20.9242C152.928 20.9304 152.591 20.866 152.278 20.731C151.965 20.596 151.712 20.3875 151.519 20.1053C151.326 19.8231 151.229 19.4688 151.229 19.0424V12.0717Z" fill="black"/>
<path d="M157.104 16.636V20.8322H155.728V11.4092H157.085V14.9152H157.173C157.338 14.5349 157.591 14.2327 157.932 14.0088C158.272 13.7849 158.717 13.6729 159.266 13.6729C159.751 13.6729 160.174 13.7726 160.536 13.972C160.901 14.1714 161.183 14.4689 161.383 14.8646C161.585 15.2572 161.686 15.748 161.686 16.337V20.8322H160.311V16.5026C160.311 15.9842 160.177 15.5824 159.91 15.2971C159.643 15.0088 159.272 14.8646 158.797 14.8646C158.472 14.8646 158.18 14.9336 157.923 15.0717C157.668 15.2097 157.467 15.4121 157.32 15.679C157.176 15.9428 157.104 16.2618 157.104 16.636Z" fill="black"/>
<path d="M166.568 20.9749C165.872 20.9749 165.272 20.8261 164.769 20.5286C164.269 20.2279 163.883 19.8062 163.61 19.2633C163.34 18.7173 163.205 18.0777 163.205 17.3446C163.205 16.6207 163.34 15.9827 163.61 15.4305C163.883 14.8784 164.263 14.4474 164.751 14.1376C165.241 13.8278 165.815 13.6729 166.471 13.6729C166.87 13.6729 167.257 13.7389 167.631 13.8708C168.005 14.0027 168.341 14.2097 168.639 14.4919C168.936 14.7741 169.171 15.1407 169.342 15.5916C169.514 16.0394 169.6 16.5839 169.6 17.225V17.7127H163.982V16.682H168.252C168.252 16.3201 168.178 15.9995 168.031 15.7204C167.884 15.4382 167.677 15.2158 167.41 15.0532C167.146 14.8907 166.836 14.8094 166.481 14.8094C166.094 14.8094 165.757 14.9045 165.468 15.0947C165.183 15.2818 164.962 15.5272 164.806 15.8308C164.652 16.1314 164.576 16.4581 164.576 16.8109V17.6161C164.576 18.0884 164.659 18.4903 164.824 18.8215C164.993 19.1528 165.228 19.4059 165.528 19.5807C165.829 19.7525 166.18 19.8384 166.582 19.8384C166.843 19.8384 167.08 19.8016 167.295 19.728C167.51 19.6513 167.695 19.5378 167.852 19.3875C168.008 19.2372 168.128 19.0516 168.211 18.8307L169.513 19.0654C169.408 19.4488 169.221 19.7847 168.951 20.073C168.685 20.3583 168.349 20.5807 167.944 20.7402C167.542 20.8966 167.083 20.9749 166.568 20.9749Z" fill="black"/>
<path d="M135.45 47.7732C132.652 47.7732 130.605 46.3894 130.369 44.2818L127.113 44.2816C127.319 48.1258 130.501 50.5577 135.214 50.5577C140.252 50.5577 143.419 48.0673 143.419 44.0911C143.419 40.9823 141.607 39.2307 137.247 38.1994L134.905 37.6245C132.166 36.9476 131.046 36.0635 131.046 34.5609C131.046 32.6756 132.799 31.3802 135.361 31.3802C137.923 31.3802 139.677 32.6605 139.869 34.7815H143.08C142.976 31.1145 139.897 28.5957 135.406 28.5957C130.869 28.5957 127.673 31.1145 127.673 34.7815C127.673 37.7432 129.485 39.5684 133.387 40.511L136.142 41.1746C138.896 41.8515 140.06 42.8393 140.06 44.4889C140.06 46.3893 138.131 47.7732 135.45 47.7732Z" fill="black"/>
<path fill-rule="evenodd" clip-rule="evenodd" d="M71.9354 44.4589H80.0367L81.9805 50.2035H85.4703L77.797 28.9501H74.2319L66.5586 50.2035H69.99L71.9354 44.4589ZM79.196 41.8081H72.7745L75.9418 32.4851H76.0304L79.196 41.8081Z" fill="black"/>
<path fill-rule="evenodd" clip-rule="evenodd" d="M95.576 50.3656C99.4653 50.3656 102.043 47.2719 102.043 42.4566C102.043 37.6547 99.4502 34.5459 95.5175 34.5459C94.5242 34.5139 93.5409 34.7517 92.6721 35.2341C91.8033 35.7165 91.0815 36.4254 90.5835 37.2853H90.525V34.708H87.4463V55.3296H90.6269V47.6546H90.7005C91.1766 48.5187 91.8864 49.2313 92.7487 49.7107C93.6109 50.1902 94.5907 50.4171 95.576 50.3656ZM94.6784 37.2569C97.1521 37.2569 98.7733 39.3194 98.7733 42.4566C98.7733 45.6222 97.1521 47.6697 94.6784 47.6697C92.2482 47.6697 90.6136 45.5788 90.6136 42.4566C90.6136 39.3629 92.2482 37.2569 94.6784 37.2569Z" fill="black"/>
<path fill-rule="evenodd" clip-rule="evenodd" d="M119.097 42.4566C119.097 47.2719 116.52 50.3656 112.631 50.3656C111.645 50.4172 110.666 50.1902 109.803 49.7107C108.941 49.2313 108.231 48.5187 107.755 47.6546H107.682V55.3296H104.501V34.7081H107.58V37.2853H107.638C108.136 36.4254 108.858 35.7165 109.727 35.2341C110.596 34.7517 111.579 34.5139 112.572 34.5459C116.505 34.5459 119.097 37.6547 119.097 42.4566ZM115.828 42.4566C115.828 39.3194 114.207 37.2569 111.733 37.2569C109.303 37.2569 107.668 39.3629 107.668 42.4566C107.668 45.5788 109.303 47.6697 111.733 47.6697C114.207 47.6697 115.828 45.6222 115.828 42.4566Z" fill="black"/>
<path d="M150.283 31.041V34.7081H153.23V37.2268H150.283V45.7693C150.283 47.0964 150.873 47.7148 152.168 47.7148C152.518 47.7087 152.867 47.6841 153.215 47.6412V50.1449C152.632 50.2538 152.04 50.303 151.448 50.292C148.311 50.292 147.087 49.1137 147.087 46.1085V37.2268H144.834V34.7081H147.087V31.041H150.283Z" fill="black"/>
<path fill-rule="evenodd" clip-rule="evenodd" d="M162.286 34.5175C157.808 34.5175 154.937 37.5812 154.937 42.4566C154.937 47.3454 157.78 50.3957 162.286 50.3957C166.794 50.3957 169.637 47.3454 169.637 42.4566C169.637 37.5811 166.779 34.5175 162.286 34.5175ZM162.286 37.1383C164.863 37.1383 166.396 39.1122 166.396 42.4566C166.396 45.8144 164.863 47.7733 162.286 47.7733C159.709 47.7733 158.178 45.8144 158.178 42.4566C158.178 39.1272 159.709 37.1383 162.286 37.1383Z" fill="black"/>
<path d="M172.259 34.708H175.293V37.3455H175.366C175.571 36.5217 176.054 35.7938 176.733 35.284C177.411 34.7741 178.245 34.5135 179.093 34.5459C179.46 34.5446 179.825 34.5844 180.183 34.6646V37.6396C179.72 37.4982 179.238 37.4333 178.754 37.4474C178.292 37.4287 177.831 37.5102 177.404 37.6863C176.976 37.8623 176.592 38.1289 176.277 38.4676C175.962 38.8063 175.724 39.2091 175.58 39.6484C175.435 40.0877 175.387 40.553 175.44 41.0125V50.2035H172.259L172.259 34.708Z" fill="black"/>
<path fill-rule="evenodd" clip-rule="evenodd" d="M188.175 50.3957C191.68 50.3957 194.419 48.4652 194.847 45.6523L191.827 45.6523C191.545 46.3524 191.044 46.9428 190.399 47.3354C189.754 47.7281 189 47.9022 188.249 47.8318C187.676 47.8528 187.106 47.7519 186.576 47.5358C186.046 47.3196 185.568 46.9931 185.174 46.578C184.78 46.1629 184.478 45.6686 184.29 45.128C184.101 44.5875 184.03 44.013 184.08 43.4427V43.2505H195.024V42.1608C195.024 37.4625 192.328 34.5175 188.041 34.5175C183.682 34.5175 180.869 37.6698 180.869 42.5301C180.869 47.3755 183.667 50.3957 188.175 50.3957ZM191.842 41.0276H184.095C184.094 40.5096 184.195 39.9965 184.393 39.5179C184.591 39.0393 184.882 38.6046 185.249 38.239C185.616 37.8733 186.051 37.584 186.531 37.3876C187.01 37.1912 187.523 37.0917 188.041 37.0948C188.555 37.0838 189.065 37.179 189.54 37.3745C190.015 37.5699 190.444 37.8615 190.801 38.2308C191.158 38.6 191.435 39.0391 191.614 39.5204C191.793 40.0017 191.871 40.5148 191.842 41.0276Z" fill="black"/>
<defs>
<linearGradient id="paint0_linear_15_900" x1="33.2791" y1="53.878" x2="33.2791" y2="12.3704" gradientUnits="userSpaceOnUse">
<stop stop-color="#111111"/>
<stop offset="1" stop-color="#333333"/>
</linearGradient>
</defs>
</svg>
