<svg width="36" height="36" viewBox="0 0 36 36" fill="none" xmlns="http://www.w3.org/2000/svg">
<path d="M13.4589 8.91773C15.1158 8.91773 16.4589 10.2609 16.4589 11.9177V22.1584C15.1176 21.1237 13.4079 20.5135 11.4555 20.1881L10.9623 23.1473C13.0332 23.4925 14.3551 24.1469 15.1692 25.0289C15.9639 25.8898 16.4589 27.1682 16.4589 29.1677C16.4589 31.2388 14.78 32.9177 12.7089 32.9177C10.6378 32.9177 8.95891 31.2388 8.95891 29.1677V28.6417C9.60401 28.8566 10.2734 29.0326 10.9623 29.1473L11.4555 26.1881C10.3411 26.0024 9.22171 25.5893 8.10254 25.0576C6.83126 24.4537 5.95891 23.1662 5.95891 21.6677C5.95891 20.4157 6.27032 19.4305 6.79702 18.7063C7.31552 17.9933 8.12176 17.4232 9.32272 17.1229L10.4589 16.8389V11.9177C10.4589 10.2609 11.8021 8.91773 13.4589 8.91773ZM17.9589 7.949C16.8596 6.70336 15.251 5.91772 13.4589 5.91772C10.1452 5.91772 7.45891 8.60402 7.45891 11.9177V14.5791C6.18233 15.0924 5.13605 15.8895 4.3708 16.9417C3.39749 18.28 2.95891 19.9198 2.95891 21.6677C2.95891 24.0155 4.15238 26.0728 5.95891 27.281V29.1677C5.95891 32.8957 8.98099 35.9177 12.7089 35.9177C14.8294 35.9177 16.7214 34.94 17.9589 33.4108C19.1964 34.94 21.0885 35.9177 23.2089 35.9177C26.9369 35.9177 29.9589 32.8957 29.9589 29.1677V27.281C31.7655 26.0728 32.9589 24.0155 32.9589 21.6677C32.9589 19.9198 32.5203 18.28 31.547 16.9417C30.7818 15.8895 29.7356 15.0924 28.4589 14.5791V11.9177C28.4589 8.60402 25.7726 5.91772 22.4589 5.91772C20.6669 5.91772 19.0583 6.70336 17.9589 7.949ZM26.9589 28.6417V29.1677C26.9589 31.2388 25.28 32.9177 23.2089 32.9177C21.1379 32.9177 19.4589 31.2388 19.4589 29.1677C19.4589 27.1682 19.9539 25.8898 20.7486 25.0289C21.5628 24.1469 22.8846 23.4925 24.9555 23.1473L24.4623 20.1881C22.5099 20.5135 20.8002 21.1237 19.4589 22.1584V11.9177C19.4589 10.2609 20.802 8.91773 22.4589 8.91773C24.1158 8.91773 25.4589 10.2609 25.4589 11.9177V16.8389L26.5952 17.1229C27.7961 17.4232 28.6023 17.9933 29.1209 18.7063C29.6475 19.4305 29.9589 20.4157 29.9589 21.6677C29.9589 23.1662 29.0865 24.4537 27.8153 25.0576C26.6961 25.5893 25.5767 26.0024 24.4623 26.1881L24.9555 29.1473C25.6445 29.0326 26.3138 28.8566 26.9589 28.6417Z" fill="#0A0A37"/>
</svg>
