<svg width="1920" height="400" viewBox="0 0 1920 400" fill="none" xmlns="http://www.w3.org/2000/svg">
<ellipse cx="2.5" cy="2.21215" rx="2.5" ry="2.21215" transform="matrix(-1 0 0 1 1852 149.542)" fill="#CECED7"/>
<ellipse cx="2.5" cy="2.21215" rx="2.5" ry="2.21215" transform="matrix(-1 0 0 1 1679 126.535)" fill="#CECED7"/>
<ellipse cx="2.5" cy="2.21215" rx="2.5" ry="2.21215" transform="matrix(-1 0 0 1 1816 86.7163)" fill="#CECED7"/>
<ellipse cx="2.5" cy="2.21215" rx="2.5" ry="2.21215" transform="matrix(-1 0 0 1 1506 103.529)" fill="#CECED7"/>
<ellipse cx="2.5" cy="2.21215" rx="2.5" ry="2.21215" transform="matrix(-1 0 0 1 1674 56.6311)" fill="#CECED7"/>
<ellipse cx="2.5" cy="2.21215" rx="2.5" ry="2.21215" transform="matrix(-1 0 0 1 1735 106.183)" fill="#CECED7"/>
<ellipse cx="2.5" cy="2.21215" rx="2.5" ry="2.21215" transform="matrix(-1 0 0 1 1761 0)" fill="#CECED7"/>
<ellipse cx="2.5" cy="2.21215" rx="2.5" ry="2.21215" transform="matrix(-1 0 0 1 1333 80.5222)" fill="#CECED7"/>
<ellipse cx="619.5" cy="224.312" rx="2.5" ry="2.21215" transform="rotate(180 619.5 224.312)" fill="#CECED7"/>
<ellipse cx="446.5" cy="247.318" rx="2.5" ry="2.21215" transform="rotate(180 446.5 247.318)" fill="#CECED7"/>
<ellipse cx="273.5" cy="270.325" rx="2.5" ry="2.21215" transform="rotate(180 273.5 270.325)" fill="#CECED7"/>
<ellipse cx="410.5" cy="310.144" rx="2.5" ry="2.21215" transform="rotate(180 410.5 310.144)" fill="#CECED7"/>
<ellipse cx="100.5" cy="293.331" rx="2.5" ry="2.21215" transform="rotate(180 100.5 293.331)" fill="#CECED7"/>
<ellipse cx="268.5" cy="340.229" rx="2.5" ry="2.21215" transform="rotate(180 268.5 340.229)" fill="#CECED7"/>
<ellipse cx="329.5" cy="290.677" rx="2.5" ry="2.21215" transform="rotate(180 329.5 290.677)" fill="#CECED7"/>
<ellipse cx="355.5" cy="396.86" rx="2.5" ry="2.21215" transform="rotate(180 355.5 396.86)" fill="#CECED7"/>
<ellipse cx="624.5" cy="291.562" rx="2.5" ry="2.21215" transform="rotate(180 624.5 291.562)" fill="#CECED7"/>
</svg>
