<svg width="22" height="23" viewBox="0 0 22 23" fill="none" xmlns="http://www.w3.org/2000/svg">
<path opacity="0.5" d="M19.1848 9.46647C17.9547 4.87566 13.2359 2.15127 8.64508 3.38138C4.05426 4.61148 1.32987 9.33026 2.55998 13.9211C3.79009 18.5119 8.50886 21.2363 13.0997 20.0062C17.6905 18.7761 20.4149 14.0573 19.1848 9.46647ZM21.2629 8.90965C22.8005 14.6481 19.395 20.5467 13.6565 22.0843C7.91799 23.6219 2.0195 20.2164 0.481879 14.4779C-1.05575 8.73938 2.34974 2.84091 8.08825 1.30328C13.8267 -0.23434 19.7252 3.17113 21.2629 8.90965ZM15.3618 8.89163C15.475 10.0338 15.045 10.7221 14.3208 11.1183C15.5063 11.4191 16.2371 12.162 16.118 13.8404C15.9743 15.944 14.5437 16.5146 12.4867 16.6658L12.5277 18.8342L11.3152 18.8571L11.2742 16.6886C10.942 16.6891 10.6105 16.7132 10.2782 16.7074L10.3193 18.8759L9.10896 18.8987L9.06788 16.7302L6.642 16.7203L6.81869 15.1319C6.81869 15.1319 7.73495 15.1379 7.71776 15.1267C8.0549 15.1189 8.15041 14.8563 8.17233 14.6845L8.10562 11.2084L8.07198 8.73411C8.03023 8.47688 7.86399 8.17025 7.36811 8.16952C7.39465 8.14264 6.48031 8.18628 6.48031 8.18628L6.45188 6.73343L8.93679 6.68655L8.89652 4.5625L10.1484 4.53889L10.1887 6.66293C10.5094 6.64765 10.8248 6.64901 11.1482 6.64484L11.108 4.52078L12.326 4.49779L12.3673 6.67754C13.9496 6.82009 15.1971 7.32517 15.3618 8.89163ZM10.1721 10.7169C10.9097 10.7391 13.0966 10.805 13.0748 9.35934C13.0472 7.98689 11.1879 8.06355 10.3242 8.09917C10.2224 8.10335 10.1344 8.10698 10.0648 8.1076L10.1105 10.715L10.1721 10.7169ZM10.1815 14.9685L10.2883 14.9713C11.1963 14.9962 13.7729 15.0665 13.7364 13.6356C13.7229 12.2517 11.4425 12.3223 10.4215 12.354C10.3096 12.3575 10.2128 12.3605 10.1359 12.3611L10.1815 14.9685Z" fill="#6A12CB"/>
</svg>
