<svg width="12" height="21" viewBox="0 0 12 21" fill="none" xmlns="http://www.w3.org/2000/svg">
<path opacity="0.5" d="M6.80431 1.63965C6.80431 1.18589 6.43647 0.818047 5.98271 0.818047C5.52895 0.818047 5.16111 1.18589 5.16111 1.63965H6.80431ZM5.16111 19.7149C5.16111 20.1686 5.52895 20.5365 5.98271 20.5365C6.43647 20.5365 6.80431 20.1686 6.80431 19.7149H5.16111ZM10.0907 5.74766C10.5445 5.74766 10.9123 5.37981 10.9123 4.92606C10.9123 4.4723 10.5445 4.10445 10.0907 4.10445V5.74766ZM1.0531 7.80166H0.231499H1.0531ZM3.92871 10.6773V11.4989V10.6773ZM8.03672 10.6773V9.85567V10.6773ZM8.03672 16.4285V17.2501V16.4285ZM1.0531 15.6069C0.599342 15.6069 0.231499 15.9747 0.231499 16.4285C0.231499 16.8822 0.599342 17.2501 1.0531 17.2501V15.6069ZM5.16111 1.63965V19.7149H6.80431V1.63965H5.16111ZM10.0907 4.10445H3.92871V5.74766H10.0907V4.10445ZM3.92871 4.10445C2.94815 4.10445 2.00775 4.49398 1.31439 5.18734L2.47631 6.34926C2.86151 5.96406 3.38395 5.74766 3.92871 5.74766V4.10445ZM1.31439 5.18734C0.621025 5.8807 0.231499 6.8211 0.231499 7.80166H1.8747C1.8747 7.25691 2.09111 6.73446 2.47631 6.34926L1.31439 5.18734ZM0.231499 7.80166C0.231499 8.78222 0.621025 9.72262 1.31439 10.416L2.47631 9.25406C2.09111 8.86886 1.8747 8.34642 1.8747 7.80166H0.231499ZM1.31439 10.416C2.00775 11.1093 2.94815 11.4989 3.92871 11.4989V9.85567C3.38395 9.85567 2.86151 9.63926 2.47631 9.25406L1.31439 10.416ZM3.92871 11.4989H8.03672V9.85567H3.92871V11.4989ZM8.03672 11.4989C8.58147 11.4989 9.10392 11.7153 9.48912 12.1005L10.651 10.9386C9.95768 10.2452 9.01728 9.85567 8.03672 9.85567V11.4989ZM9.48912 12.1005C9.87432 12.4857 10.0907 13.0081 10.0907 13.5529H11.7339C11.7339 12.5723 11.3444 11.6319 10.651 10.9386L9.48912 12.1005ZM10.0907 13.5529C10.0907 14.0976 9.87432 14.6201 9.48912 15.0053L10.651 16.1672C11.3444 15.4738 11.7339 14.5334 11.7339 13.5529H10.0907ZM9.48912 15.0053C9.10392 15.3905 8.58147 15.6069 8.03672 15.6069V17.2501C9.01728 17.2501 9.95768 16.8606 10.651 16.1672L9.48912 15.0053ZM8.03672 15.6069H1.0531V17.2501H8.03672V15.6069Z" fill="#2575FC"/>
</svg>
