<svg width="36" height="36" viewBox="0 0 36 36" fill="none" xmlns="http://www.w3.org/2000/svg">
<path d="M9 10.5C9 5.52944 13.0294 1.5 18 1.5C22.9705 1.5 27 5.52944 27 10.5V12H29.25C30.4926 12 31.5 13.0074 31.5 14.25V19.5H28.5V15H7.5V30H19.5V33H6.75C5.50735 33 4.5 31.9926 4.5 30.75V14.25C4.5 13.0074 5.50735 12 6.75 12H9V10.5ZM24 10.5C24 7.18629 21.3136 4.5 18 4.5C14.6863 4.5 12 7.18629 12 10.5V12H24V10.5ZM30.9598 30.2929L31.7175 34.7109L27.75 32.625L23.7825 34.7109L24.5401 30.2929L21.3303 27.1641L25.7662 26.5196L27.75 22.5L29.7337 26.5196L34.1697 27.1641L30.9598 30.2929Z" fill="#0A0A37"/>
</svg>
