<svg width="26" height="25" viewBox="0 0 26 25" fill="none" xmlns="http://www.w3.org/2000/svg">
<path d="M13.0423 1.14795L2 6.66908L13.0423 12.1902L24.0845 6.66908L13.0423 1.14795Z" fill="url(#paint0_linear_15_940)"/>
<path d="M2 17.7113L13.0423 23.2325L24.0845 17.7113" fill="url(#paint1_linear_15_940)"/>
<path d="M2 12.1902L13.0423 17.7113L24.0845 12.1902" fill="url(#paint2_linear_15_940)"/>
<path d="M13.0423 1.14795L13.5361 0.1603C13.2252 0.00486505 12.8593 0.00486505 12.5484 0.1603L13.0423 1.14795ZM2 6.66908L1.50618 5.68143C1.13208 5.86847 0.895775 6.25083 0.895775 6.66908C0.895775 7.08733 1.13208 7.46968 1.50618 7.65673L2 6.66908ZM13.0423 12.1902L12.5484 13.1779C12.8593 13.3333 13.2252 13.3333 13.5361 13.1779L13.0423 12.1902ZM24.0845 6.66908L24.5783 7.65673C24.9524 7.46968 25.1887 7.08733 25.1887 6.66908C25.1887 6.25083 24.9524 5.86847 24.5783 5.68143L24.0845 6.66908ZM2.49382 16.7237C1.94836 16.4509 1.28508 16.672 1.01235 17.2175C0.739619 17.763 0.960712 18.4262 1.50618 18.699L2.49382 16.7237ZM13.0423 23.2325L12.5484 24.2201C12.8593 24.3755 13.2252 24.3755 13.5361 24.2201L13.0423 23.2325ZM24.5783 18.699C25.1238 18.4262 25.3449 17.763 25.0722 17.2175C24.7994 16.672 24.1361 16.4509 23.5907 16.7237L24.5783 18.699ZM2.49382 11.2026C1.94836 10.9298 1.28508 11.1509 1.01235 11.6964C0.739619 12.2418 0.960712 12.9051 1.50618 13.1779L2.49382 11.2026ZM13.0423 17.7113L12.5484 18.699C12.8593 18.8544 13.2252 18.8544 13.5361 18.699L13.0423 17.7113ZM24.5783 13.1779C25.1238 12.9051 25.3449 12.2418 25.0722 11.6964C24.7994 11.1509 24.1361 10.9298 23.5907 11.2026L24.5783 13.1779ZM12.5484 0.1603L1.50618 5.68143L2.49382 7.65673L13.5361 2.1356L12.5484 0.1603ZM1.50618 7.65673L12.5484 13.1779L13.5361 11.2026L2.49382 5.68143L1.50618 7.65673ZM13.5361 13.1779L24.5783 7.65673L23.5907 5.68143L12.5484 11.2026L13.5361 13.1779ZM24.5783 5.68143L13.5361 0.1603L12.5484 2.1356L23.5907 7.65673L24.5783 5.68143ZM1.50618 18.699L12.5484 24.2201L13.5361 22.2448L2.49382 16.7237L1.50618 18.699ZM13.5361 24.2201L24.5783 18.699L23.5907 16.7237L12.5484 22.2448L13.5361 24.2201ZM1.50618 13.1779L12.5484 18.699L13.5361 16.7237L2.49382 11.2026L1.50618 13.1779ZM13.5361 18.699L24.5783 13.1779L23.5907 11.2026L12.5484 16.7237L13.5361 18.699Z" fill="url(#paint3_linear_15_940)"/>
<defs>
<linearGradient id="paint0_linear_15_940" x1="24.0845" y1="12.1902" x2="2" y2="12.1902" gradientUnits="userSpaceOnUse">
<stop stop-color="#6A12CB"/>
<stop offset="1" stop-color="#2575FC"/>
</linearGradient>
<linearGradient id="paint1_linear_15_940" x1="24.0845" y1="12.1902" x2="2" y2="12.1902" gradientUnits="userSpaceOnUse">
<stop stop-color="#6A12CB"/>
<stop offset="1" stop-color="#2575FC"/>
</linearGradient>
<linearGradient id="paint2_linear_15_940" x1="24.0845" y1="12.1902" x2="2" y2="12.1902" gradientUnits="userSpaceOnUse">
<stop stop-color="#6A12CB"/>
<stop offset="1" stop-color="#2575FC"/>
</linearGradient>
<linearGradient id="paint3_linear_15_940" x1="24.0845" y1="12.1902" x2="2" y2="12.1902" gradientUnits="userSpaceOnUse">
<stop stop-color="#6A12CB"/>
<stop offset="1" stop-color="#2575FC"/>
</linearGradient>
</defs>
</svg>
