<svg width="30" height="30" viewBox="0 0 30 30" fill="none" xmlns="http://www.w3.org/2000/svg">
<rect x="0.248815" y="0.248815" width="28.8625" height="28.8625" rx="14.4313" fill="#EBF2FF"/>
<rect x="0.248815" y="0.248815" width="28.8625" height="28.8625" rx="14.4313" stroke="#2575FC" stroke-width="0.49763"/>
<path opacity="0.5" d="M21.2972 12.9838C20.3269 9.36275 16.6049 7.21383 12.9838 8.18411C9.36269 9.15437 7.21377 12.8764 8.18404 16.4975C9.15432 20.1186 12.8763 22.2675 16.4974 21.2972C20.1185 20.327 22.2674 16.605 21.2972 12.9838ZM22.9363 12.5446C24.1491 17.071 21.463 21.7236 16.9366 22.9364C12.4103 24.1492 7.75773 21.463 6.5449 16.9367C5.33207 12.4103 8.01821 7.7578 12.5446 6.54496C17.0709 5.33214 21.7235 8.01827 22.9363 12.5446ZM18.2817 12.5304C18.371 13.4313 18.0318 13.9742 17.4607 14.2868C18.3957 14.524 18.9721 15.11 18.8782 16.4339C18.7648 18.0931 17.6364 18.5432 16.0139 18.6624L16.0463 20.3728L15.0899 20.3908L15.0575 18.6805C14.7955 18.6808 14.534 18.6999 14.272 18.6952L14.3044 20.4057L13.3497 20.4237L13.3173 18.7133L11.4038 18.7054L11.5432 17.4525C11.5432 17.4525 12.2659 17.4573 12.2523 17.4485C12.5183 17.4423 12.5936 17.2352 12.6109 17.0997L12.5583 14.3579L12.5317 12.4062C12.4988 12.2033 12.3677 11.9614 11.9765 11.9608C11.9975 11.9396 11.2763 11.9741 11.2763 11.9741L11.2539 10.8281L13.2139 10.7911L13.1821 9.11574L14.1696 9.09712L14.2013 10.7725C14.4543 10.7604 14.7031 10.7615 14.9582 10.7582L14.9264 9.08283L15.8872 9.0647L15.9198 10.784C17.1678 10.8965 18.1518 11.2948 18.2817 12.5304ZM14.1882 13.9701C14.77 13.9876 16.495 14.0396 16.4778 12.8993C16.4561 11.8168 14.9895 11.8773 14.3082 11.9054C14.2279 11.9087 14.1585 11.9115 14.1036 11.912L14.1397 13.9686L14.1882 13.9701ZM14.1957 17.3237L14.2799 17.3259C14.9961 17.3455 17.0284 17.401 16.9996 16.2723C16.989 15.1807 15.1903 15.2365 14.385 15.2615C14.2967 15.2642 14.2203 15.2666 14.1597 15.267L14.1957 17.3237Z" fill="#2575FC"/>
</svg>
