<svg width="96" height="66" viewBox="0 0 96 66" fill="none" xmlns="http://www.w3.org/2000/svg">
<path d="M0 0H96V54C96 60.6274 90.6274 66 84 66H12C5.37258 66 0 60.6274 0 54V0Z" fill="#0A0A37" fill-opacity="0.2"/>
<path d="M69.1667 20.5L71.0833 20.5C71.0833 19.9917 70.8814 19.5042 70.522 19.1447C70.1625 18.7853 69.675 18.5833 69.1667 18.5833V20.5ZM50.9583 38.7083L49.603 40.0636C50.3516 40.8121 51.5651 40.8121 52.3136 40.0636L50.9583 38.7083ZM41.375 29.125L42.7303 27.7697C41.9818 27.0212 40.7682 27.0212 40.0197 27.7697L41.375 29.125ZM25.6447 42.1447C24.8962 42.8932 24.8962 44.1068 25.6447 44.8553C26.3932 45.6038 27.6068 45.6038 28.3553 44.8553L25.6447 42.1447ZM57.6667 18.5833C56.6081 18.5833 55.75 19.4415 55.75 20.5C55.75 21.5585 56.6081 22.4167 57.6667 22.4167V18.5833ZM67.25 32C67.25 33.0585 68.1081 33.9167 69.1667 33.9167C70.2252 33.9167 71.0833 33.0585 71.0833 32L67.25 32ZM67.8114 19.1447L49.603 37.353L52.3136 40.0636L70.522 21.8553L67.8114 19.1447ZM52.3136 37.353L42.7303 27.7697L40.0197 30.4803L49.603 40.0636L52.3136 37.353ZM40.0197 27.7697L25.6447 42.1447L28.3553 44.8553L42.7303 30.4803L40.0197 27.7697ZM57.6667 22.4167H69.1667V18.5833H57.6667V22.4167ZM67.25 20.5L67.25 32L71.0833 32L71.0833 20.5L67.25 20.5Z" fill="white"/>
</svg>
