<svg width="30" height="22" viewBox="0 0 30 22" fill="none" xmlns="http://www.w3.org/2000/svg">
<path d="M29.149 3.5238C29.7837 2.8892 29.7837 1.86031 29.149 1.22571C28.5144 0.591105 27.4856 0.591105 26.851 1.22571L29.149 3.5238ZM10.125 20.2498L8.97595 21.3988C9.61055 22.0334 10.6394 22.0334 11.274 21.3988L10.125 20.2498ZM3.14905 10.9757C2.51445 10.3411 1.48555 10.3411 0.850951 10.9757C0.216349 11.6103 0.216349 12.6392 0.850951 13.2738L3.14905 10.9757ZM26.851 1.22571L8.97595 19.1007L11.274 21.3988L29.149 3.5238L26.851 1.22571ZM11.274 19.1007L3.14905 10.9757L0.850951 13.2738L8.97595 21.3988L11.274 19.1007Z" fill="url(#paint0_linear_15_974)"/>
<defs>
<linearGradient id="paint0_linear_15_974" x1="28" y1="11.3123" x2="2" y2="11.3123" gradientUnits="userSpaceOnUse">
<stop stop-color="#6A12CB"/>
<stop offset="1" stop-color="#2575FC"/>
</linearGradient>
</defs>
</svg>
