<svg width="38" height="38" viewBox="0 0 38 38" fill="none" xmlns="http://www.w3.org/2000/svg">
<path d="M28.5 12.6669H30.0833C31.763 12.6669 33.3739 13.3341 34.5617 14.5219C35.7494 15.7096 36.4167 17.3205 36.4167 19.0002C36.4167 20.6799 35.7494 22.2908 34.5617 23.4786C33.3739 24.6663 31.763 25.3336 30.0833 25.3336H28.5" stroke="#0A0A37" stroke-width="3.16667" stroke-linecap="round" stroke-linejoin="round"/>
<path d="M3.16669 12.6669H28.5V26.9169C28.5 28.5966 27.8328 30.2075 26.645 31.3952C25.4573 32.583 23.8464 33.2502 22.1667 33.2502H9.50002C7.82032 33.2502 6.20941 32.583 5.02168 31.3952C3.83395 30.2075 3.16669 28.5966 3.16669 26.9169V12.6669Z" stroke="#0A0A37" stroke-width="3.16667" stroke-linecap="round" stroke-linejoin="round"/>
<path d="M9.5 1.58311V6.33311" stroke="#0A0A37" stroke-width="3.16667" stroke-linecap="round" stroke-linejoin="round"/>
<path d="M15.8333 1.58311V6.33311" stroke="#0A0A37" stroke-width="3.16667" stroke-linecap="round" stroke-linejoin="round"/>
<path d="M22.1667 1.58311V6.33311" stroke="#0A0A37" stroke-width="3.16667" stroke-linecap="round" stroke-linejoin="round"/>
</svg>
