<svg width="209" height="65" viewBox="0 0 209 65" fill="none" xmlns="http://www.w3.org/2000/svg">
<rect x="0.231707" y="0.231707" width="208.537" height="64.4146" rx="14.5976" fill="white"/>
<rect x="0.231707" y="0.231707" width="208.537" height="64.4146" rx="14.5976" stroke="#D6DCE5" stroke-width="0.463415"/>
<rect x="12.2805" y="12.2805" width="40.3171" height="40.3171" rx="9.03658" fill="white"/>
<rect x="12.2805" y="12.2805" width="40.3171" height="40.3171" rx="9.03658" stroke="#D6DCE5" stroke-width="0.463415"/>
<path d="M21.5626 18.3346C21.1921 18.7792 21.005 19.3484 21.0397 19.9262V45.0735C21.005 45.6513 21.1921 46.2205 21.5626 46.6652L21.6422 46.7447L35.7279 32.6704V32.3407L21.6422 18.255L21.5626 18.3346Z" fill="url(#paint0_linear_15_888)"/>
<path d="M40.39 37.3655L35.7288 32.6703V32.3406L40.39 27.634L40.4923 27.6908L46.0743 30.8627C47.6659 31.7608 47.6659 33.2387 46.0743 34.1482L40.515 37.3087L40.39 37.3655Z" fill="url(#paint1_linear_15_888)"/>
<path d="M40.5263 37.2974L35.7288 32.4998L21.5635 46.6651C21.8879 46.9503 22.3017 47.1132 22.7335 47.1256C23.1653 47.1381 23.5878 46.9993 23.9281 46.7333L40.5377 37.2974" fill="url(#paint2_linear_15_888)"/>
<path d="M40.5251 27.7021L23.9156 18.2661C23.5753 18.0001 23.1527 17.8614 22.7209 17.8738C22.2892 17.8863 21.8753 18.0492 21.5509 18.3344L35.7276 32.4996L40.5251 27.7021Z" fill="url(#paint3_linear_15_888)"/>
<path opacity="0.2" d="M40.3899 37.1943L23.9168 46.5734C23.5886 46.8188 23.1897 46.9514 22.7799 46.9514C22.3701 46.9514 21.9713 46.8188 21.6431 46.5734L21.5635 46.653L21.6431 46.7326C21.9705 46.9798 22.3696 47.1135 22.7799 47.1135C23.1902 47.1135 23.5893 46.9798 23.9168 46.7326L40.5263 37.2967L40.3899 37.1943Z" fill="black"/>
<path opacity="0.12" d="M21.5626 46.5059C21.1921 46.0613 21.005 45.4921 21.0397 44.9143V45.0849C21.005 45.6626 21.1921 46.2318 21.5626 46.6765L21.6422 46.5969L21.5626 46.5059ZM46.0733 33.9777L40.389 37.1951L40.4914 37.2974L46.0733 34.1369C46.3901 33.9881 46.662 33.7584 46.8616 33.471C47.0612 33.1836 47.1814 32.8486 47.2102 32.4998C47.1463 32.8167 47.0106 33.1146 46.8135 33.3709C46.6164 33.6271 46.3632 33.8347 46.0733 33.9777Z" fill="black"/>
<path opacity="0.25" d="M23.9159 18.4255L46.0734 31.0219C46.3632 31.165 46.6164 31.3726 46.8135 31.6288C47.0106 31.885 47.1463 32.183 47.2102 32.4999C47.1815 32.1511 47.0612 31.8161 46.8616 31.5287C46.662 31.2413 46.3901 31.0116 46.0734 30.8628L23.9159 18.2664C22.3243 17.3682 21.0283 18.1186 21.0283 19.9375V20.1081C21.0624 18.2777 22.3357 17.5274 23.9159 18.4255Z" fill="white"/>
<path d="M69.8658 12.9756C68.4736 12.9756 67.2912 13.4595 66.3265 14.4242C65.3598 15.3909 64.8779 16.5859 64.8779 17.9898C64.8779 19.3935 65.3597 20.5901 66.3264 21.5553C67.2912 22.5217 68.4737 23.004 69.8658 23.004C71.3176 23.004 72.4901 22.5365 73.3942 21.5802C74.1936 20.78 74.5947 19.6978 74.5947 18.3666C74.5947 18.1348 74.567 17.8917 74.5277 17.6417L74.5071 17.5107H69.7107V18.9387H73.0691C72.9551 19.7297 72.6162 20.35 72.0786 20.8083C71.5002 21.3 70.7578 21.5512 69.8658 21.5512C68.8923 21.5512 68.075 21.2167 67.4043 20.545C66.7457 19.8607 66.4082 19.018 66.4082 17.9898C66.4082 16.9632 66.7457 16.1189 67.4042 15.4347C68.075 14.7644 68.8923 14.4299 69.8658 14.4299C70.3672 14.4299 70.8405 14.5167 71.2728 14.7026C71.7056 14.8887 72.0493 15.1469 72.3178 15.4767L72.4262 15.6099L73.5079 14.5281L73.4118 14.4189C73.0046 13.9566 72.4891 13.6056 71.8605 13.3513C71.2299 13.0968 70.5727 12.9756 69.8658 12.9756Z" fill="black"/>
<path fill-rule="evenodd" clip-rule="evenodd" d="M111.637 12.9756C110.245 12.9756 109.074 13.4596 108.122 14.4247C107.168 15.3785 106.7 16.5755 106.7 17.9898C106.7 19.4057 107.168 20.6012 108.122 21.555C109.074 22.5216 110.245 23.004 111.637 23.004C113.015 23.004 114.199 22.5218 115.152 21.555C116.105 20.6012 116.574 19.4057 116.574 17.9898C116.574 16.5878 116.105 15.3925 115.152 14.4389C114.2 13.4596 113.029 12.9756 111.637 12.9756ZM109.202 15.4341C109.861 14.7642 110.664 14.4299 111.637 14.4299C112.611 14.4299 113.413 14.7645 114.059 15.4337L114.061 15.4356C114.716 16.0925 115.042 16.9473 115.042 17.9898C115.042 19.034 114.716 19.8886 114.061 20.5439L114.059 20.546C113.413 21.2166 112.611 21.5512 111.637 21.5512C110.664 21.5512 109.861 21.2169 109.202 20.5455C108.557 19.8767 108.232 19.033 108.232 17.9898C108.232 16.9482 108.557 16.1045 109.202 15.4341Z" fill="black"/>
<path d="M75.9994 13.1833V22.7962H81.7408V21.3435H77.5049V18.7046H81.3237V17.2766H77.5049V14.6377H81.7408V13.1833H75.9994Z" fill="black"/>
<path d="M82.6773 13.1833V14.6377H85.2759V22.7962H86.7798V14.6377H89.3784V13.1833H82.6773Z" fill="black"/>
<path d="M93.6949 13.1833V22.7962H95.2004V13.1833H93.6949Z" fill="black"/>
<path d="M96.3974 13.1833V14.6377H98.996V22.7962H100.501V14.6377H103.1V13.1833H96.3974Z" fill="black"/>
<path d="M117.941 13.1833V22.7962H119.447V16.8471L119.447 16.8425L119.408 15.5333L123.934 22.7962H125.422V13.1833H123.917V18.7836L123.917 18.7882L123.955 20.0968L119.636 13.1833H117.941Z" fill="black"/>
<path d="M84.6087 39.6974H80.1637C78.6794 39.6974 77.199 39.7013 75.6794 39.713C75.4438 39.713 75.3653 39.7598 75.3653 40.0133C75.385 40.727 75.3889 41.4445 75.3653 42.1582C75.3575 42.439 75.436 42.5091 75.7187 42.5091H81.8286C82.0014 42.5091 82.0877 42.5092 82.0602 42.7354C82.0327 42.9616 81.9857 43.1838 81.9386 43.4022C81.7884 44.1302 81.4888 44.8196 81.0584 45.4275C80.6281 46.0354 80.0762 46.5488 79.4372 46.9355C77.8755 47.9403 75.9851 48.3116 74.1559 47.9729C73.0048 47.8064 71.9126 47.3614 70.9752 46.6773C70.0379 45.9932 69.2841 45.0909 68.7803 44.0496C67.8787 42.2813 67.7178 40.2305 68.3328 38.3448C68.9478 36.4592 70.2887 34.8917 72.0629 33.9842C73.4407 33.2793 75.0136 33.0435 76.5394 33.3134C77.9161 33.5184 79.1984 34.1315 80.2186 35.0723C80.3521 35.1815 80.4307 35.2322 80.5877 35.0723C81.1414 34.499 81.7108 33.9452 82.2841 33.3914C82.4097 33.2745 82.4058 33.2081 82.2841 33.095C81.8607 32.7 81.4035 32.3425 80.9176 32.0265C79.6649 31.2034 78.2353 30.6837 76.7436 30.5094C75.7128 30.3748 74.6677 30.3906 73.6415 30.5563C72.3638 30.7618 71.1352 31.1994 70.0172 31.8471C67.8683 33.0807 66.2399 35.0428 65.4308 37.3731C65.171 38.0607 65.0033 38.7792 64.9321 39.5102C64.8339 40.4854 64.8696 41.4694 65.0382 42.4351C65.1816 43.2182 65.4189 43.9815 65.745 44.7087C66.1282 45.5311 66.6094 46.3048 67.1782 47.0133C67.7567 47.7261 68.4305 48.3572 69.1808 48.8892C70.1875 49.6213 71.3198 50.1657 72.5224 50.4959C73.1978 50.6981 73.8951 50.8186 74.5996 50.8547C75.2539 50.892 75.9101 50.8815 76.5629 50.8235C77.1658 50.7608 77.7631 50.6528 78.3495 50.4999C79.6698 50.1472 80.8935 49.5048 81.9307 48.6201C83.1811 47.6015 84.0993 46.2377 84.5694 44.7009C85.0503 43.1896 85.1845 41.5906 84.9621 40.0211C84.9228 39.7793 84.86 39.6974 84.6087 39.6974Z" fill="black"/>
<path d="M132.695 50.2832V40.9093C132.692 37.782 132.698 34.6586 132.711 31.5392C132.711 31.3126 132.667 31.2267 132.409 31.2267H130.028C129.806 31.2228 129.75 31.2893 129.75 31.5041V50.3378C129.75 50.5682 129.829 50.6072 130.04 50.6072C130.299 50.6072 130.557 50.6046 130.814 50.602C131.329 50.5968 131.844 50.5916 132.374 50.6072C132.643 50.6111 132.695 50.5293 132.695 50.2832Z" fill="black"/>
<path fill-rule="evenodd" clip-rule="evenodd" d="M116.629 52.7125L116.628 52.7129C116.337 52.8372 116.046 52.9614 115.755 53.0873C115.806 53.1862 115.845 53.2691 115.876 53.3561C116.308 54.2981 116.952 55.1233 117.756 55.7645C118.649 56.4852 119.729 56.9237 120.864 57.0259C121.684 57.1142 122.512 57.0621 123.315 56.8717C124.137 56.6949 124.908 56.328 125.568 55.7992C126.228 55.2705 126.76 54.5943 127.122 53.8228C127.655 52.6302 127.907 51.3277 127.86 50.0185V38.349C127.864 38.1354 127.786 38.092 127.596 38.092H125.887C125.815 38.092 125.738 38.0834 125.662 38.0748C125.472 38.0536 125.282 38.0323 125.16 38.1393C125.038 38.247 125.061 38.4545 125.084 38.6594C125.093 38.7403 125.102 38.8208 125.102 38.8946V38.9263C125.098 38.95 125.105 38.9758 125.111 39.0017C125.124 39.0539 125.137 39.1068 125.067 39.1437C124.988 39.1854 124.947 39.1262 124.908 39.0708C124.895 39.0526 124.882 39.0348 124.869 39.0211C124.121 38.2475 123.12 37.7803 122.056 37.7083C119.753 37.5303 117.915 38.4635 116.536 40.2984C115.669 41.4567 115.204 42.8756 115.215 44.332C115.201 45.1613 115.343 45.9858 115.635 46.7601C115.933 47.5787 116.387 48.3292 116.971 48.9685C117.555 49.6078 118.258 50.1232 119.038 50.4852C120.063 50.987 121.213 51.158 122.336 50.9755C123.309 50.8267 124.207 50.3572 124.892 49.6389C124.905 49.6262 124.915 49.6101 124.926 49.594C124.955 49.55 124.983 49.5061 125.052 49.5321C125.122 49.559 125.113 49.6218 125.104 49.6817C125.101 49.7011 125.098 49.7203 125.098 49.7378C125.103 50.2836 125.073 50.8291 125.009 51.3709C124.849 52.498 124.387 53.4115 123.377 53.9454C122.832 54.2643 122.212 54.4264 121.583 54.4146C120.954 54.4028 120.34 54.2174 119.807 53.8782C119.186 53.4859 118.689 52.9186 118.378 52.245L118.371 52.2308L118.361 52.2099C118.311 52.1028 118.265 52.0044 118.086 52.0829C117.601 52.2978 117.115 52.5053 116.629 52.7125ZM124.939 42.505C125.162 43.0182 125.287 43.5698 125.308 44.1305C125.3 45.475 125.017 46.4636 124.286 47.2782C123.956 47.6437 123.552 47.933 123.103 48.127C122.653 48.321 122.169 48.4151 121.681 48.4031C121.193 48.3912 120.713 48.2733 120.273 48.0575C119.834 47.8417 119.444 47.5328 119.131 47.1515C118.468 46.3438 118.116 45.3189 118.139 44.2668C118.161 43.2146 118.558 42.2066 119.256 41.4295C119.645 40.9934 120.138 40.6659 120.687 40.478C121.235 40.2901 121.822 40.248 122.391 40.3558C122.961 40.4635 123.494 40.7174 123.939 41.0935C124.385 41.4697 124.729 41.9556 124.939 42.505Z" fill="black"/>
<path fill-rule="evenodd" clip-rule="evenodd" d="M99.3319 44.2842C99.3173 45.5702 98.9256 46.8248 98.2041 47.8964C97.4826 48.968 96.4619 49.8111 95.2653 50.3238C94.0686 50.8366 92.7471 50.9972 91.4599 50.7863C90.1727 50.5754 88.9749 50.0019 88.0109 49.1351C86.8631 48.115 86.1323 46.7172 85.9555 45.2038C85.8026 44.2554 85.8652 43.2853 86.1386 42.3636C86.4121 41.4419 86.8895 40.5915 87.5366 39.8736C88.1801 39.1444 88.9838 38.5692 89.8865 38.1918C90.7892 37.8144 91.7672 37.6448 92.7464 37.6956C93.6202 37.6934 94.4857 37.8629 95.2922 38.1945C96.0986 38.526 96.8298 39.0129 97.4431 39.6265C98.0563 40.24 98.5393 40.9679 98.8636 41.7677C99.1879 42.5675 99.3471 43.423 99.3319 44.2842ZM94.877 47.4598C94.2324 47.961 93.4362 48.2353 92.6152 48.239C91.6823 48.2229 90.7876 47.871 90.0997 47.2496C89.4116 46.628 88.978 45.7798 88.8806 44.8648C88.7895 44.3109 88.8125 43.7446 88.9484 43.1997C89.0842 42.6548 89.33 42.1424 89.6712 41.6931C90.073 41.1357 90.6327 40.7076 91.2803 40.4622C91.9279 40.2169 92.6345 40.1652 93.3117 40.3138C94.0144 40.4315 94.6663 40.7508 95.1858 41.2318C95.7054 41.7127 96.0696 42.334 96.2328 43.0179C96.4823 43.8071 96.4865 44.652 96.2449 45.4435C96.0033 46.2351 95.5269 46.9373 94.877 47.4598Z" fill="black"/>
<path fill-rule="evenodd" clip-rule="evenodd" d="M113.868 44.3952C113.858 45.6969 113.485 46.9683 112.791 48.0587C112.097 49.149 111.113 50.0126 109.955 50.5467C108.797 51.0808 107.514 51.2631 106.258 51.072C105.002 50.8808 103.826 50.3242 102.869 49.4683C102.226 48.9101 101.701 48.2229 101.326 47.4489C100.952 46.6748 100.737 45.8304 100.693 44.9677C100.441 40.5426 103.582 37.676 107.286 37.6879C108.152 37.6719 109.011 37.8342 109.814 38.1651C110.617 38.496 111.348 38.9888 111.961 39.6143C112.575 40.2398 113.06 40.9852 113.388 41.8064C113.715 42.6277 113.879 43.508 113.868 44.3952ZM107.604 48.4506C108.306 48.4007 108.973 48.1221 109.509 47.6554C110.831 46.5382 111.219 45.071 110.889 43.4051C110.783 42.7017 110.477 42.0462 110.009 41.5201C109.542 40.994 108.933 40.6208 108.26 40.4471C107.621 40.2412 106.937 40.2308 106.292 40.4172C105.647 40.6036 105.07 40.9788 104.63 41.4968C104.204 41.9732 103.891 42.544 103.716 43.1648C103.541 43.7855 103.509 44.4393 103.621 45.075C103.85 46.9693 105.436 48.4471 107.604 48.4506Z" fill="black"/>
<path fill-rule="evenodd" clip-rule="evenodd" d="M134.065 44.3278C134.022 43.2509 134.248 42.1801 134.723 41.2119C134.988 40.6717 135.327 40.1714 135.732 39.7257C136.157 39.2562 136.652 38.8542 137.199 38.5334C137.877 38.1325 138.63 37.8716 139.411 37.7664C140.406 37.6038 141.425 37.6913 142.377 38.0208C143.81 38.5549 144.995 39.596 145.706 40.9457C145.977 41.4431 146.21 41.9599 146.404 42.4917C146.472 42.6626 146.448 42.75 146.276 42.8215L140.388 45.206L140.273 45.2553C139.383 45.6363 138.496 46.0159 137.597 46.3626C137.46 46.4198 137.48 46.4585 137.531 46.5565L137.538 46.569C138.67 48.731 141.337 48.9218 142.967 47.7176C143.347 47.4282 143.685 47.0886 143.972 46.7082C144.06 46.6014 144.104 46.63 144.167 46.671L144.175 46.6763C144.334 46.7821 144.492 46.8879 144.651 46.9936L144.653 46.9947L144.654 46.9956C145.179 47.3461 145.703 47.6961 146.232 48.0436C146.336 48.1112 146.352 48.1587 146.268 48.266C145.313 49.5926 143.915 50.5378 142.326 50.9328C141.753 51.0891 141.161 51.16 140.567 51.1434C139.716 51.1195 138.876 50.9432 138.088 50.6227C137.45 50.3385 136.854 49.968 136.318 49.5219C135.693 48.9934 135.179 48.3463 134.807 47.6183C134.262 46.6098 134.006 45.4716 134.065 44.3278ZM136.988 43.819C136.988 44.1766 136.988 44.1767 137.306 44.0415C137.744 43.8619 138.18 43.682 138.617 43.5022L138.635 43.4947C140.009 42.9291 141.381 42.364 142.756 41.808C143.007 41.7047 143.011 41.6014 142.88 41.4106C142.66 41.0801 142.365 40.8065 142.018 40.6123C141.672 40.4181 141.284 40.309 140.886 40.2941C140.396 40.2601 139.904 40.3253 139.439 40.4858C138.975 40.6463 138.547 40.8988 138.183 41.228C137.819 41.5573 137.525 41.9566 137.32 42.4018C137.114 42.8471 137.001 43.329 136.988 43.819Z" fill="black"/>
<path fill-rule="evenodd" clip-rule="evenodd" d="M152.536 31.138H159.496C160.324 31.0785 161.155 31.1903 161.938 31.4662C162.721 31.7422 163.439 32.1765 164.046 32.7421C164.654 33.3076 165.138 33.9923 165.47 34.7534C165.801 35.5145 165.972 36.3357 165.972 37.1658C165.972 37.996 165.801 38.8172 165.47 39.5783C165.138 40.3394 164.654 41.0241 164.046 41.5896C163.439 42.1552 162.721 42.5895 161.938 42.8655C161.155 43.1414 160.324 43.2532 159.496 43.1937H155.441V50.5576H152.536V31.138ZM155.425 40.4594H159.48L159.542 40.506C160.426 40.506 161.274 40.1549 161.899 39.53C162.524 38.905 162.875 38.0574 162.875 37.1736C162.875 36.2898 162.524 35.4422 161.899 34.8173C161.274 34.1923 160.426 33.8412 159.542 33.8412H155.425V40.4594Z" fill="black"/>
<path fill-rule="evenodd" clip-rule="evenodd" d="M174.363 38.3741C175.282 37.8469 176.335 37.5998 177.393 37.663L177.471 37.7096C180.78 37.7096 183.359 39.6826 183.359 43.0849V50.5576H180.562V49.004H180.469C180.072 49.6208 179.516 50.1194 178.86 50.4474C178.204 50.7755 177.472 50.9208 176.74 50.8683C176.142 50.9125 175.54 50.8363 174.972 50.6441C174.403 50.452 173.879 50.1477 173.43 49.7494C172.981 49.3511 172.616 48.8668 172.358 48.3252C172.099 47.7836 171.952 47.1956 171.924 46.596C171.924 43.784 174.736 42.2305 177.517 42.2305C178.573 42.226 179.614 42.4822 180.547 42.9762V42.7742C180.51 42.4047 180.4 42.0463 180.223 41.7197C180.047 41.3931 179.807 41.105 179.517 40.8722C179.228 40.6394 178.896 40.4665 178.539 40.3636C178.182 40.2607 177.808 40.2299 177.44 40.273C176.908 40.2295 176.376 40.3415 175.907 40.5953C175.438 40.849 175.053 41.2336 174.798 41.7023L172.22 40.6303C172.699 39.6854 173.444 38.9013 174.363 38.3741ZM174.767 46.6581C174.767 47.8233 176.088 48.3049 177.036 48.3049L177.113 48.3515C177.96 48.3309 178.77 48.0051 179.395 47.4341C180.021 46.8632 180.418 46.0855 180.516 45.2444C179.709 44.7945 178.797 44.5691 177.875 44.5919C176.414 44.5919 174.767 45.1046 174.767 46.6581Z" fill="black"/>
<path d="M190.225 46.5494L193.55 38.1291H196.781L188.827 56.4456H185.798L188.749 49.9051L183.576 38.1291H186.683L190.132 46.5494H190.225Z" fill="black"/>
<path d="M170.34 50.5576H167.435V31.138H170.34V50.5576Z" fill="black"/>
<defs>
<linearGradient id="paint0_linear_15_888" x1="34.4774" y1="19.6647" x2="15.4008" y2="38.7412" gradientUnits="userSpaceOnUse">
<stop stop-color="#00A0FF"/>
<stop offset="0.01" stop-color="#00A1FF"/>
<stop offset="0.26" stop-color="#00BEFF"/>
<stop offset="0.51" stop-color="#00D2FF"/>
<stop offset="0.76" stop-color="#00DFFF"/>
<stop offset="1" stop-color="#00E3FF"/>
</linearGradient>
<linearGradient id="paint1_linear_15_888" x1="48.1547" y1="32.4997" x2="20.654" y2="32.4997" gradientUnits="userSpaceOnUse">
<stop stop-color="#FFE000"/>
<stop offset="0.41" stop-color="#FFBD00"/>
<stop offset="0.78" stop-color="#FFA500"/>
<stop offset="1" stop-color="#FF9C00"/>
</linearGradient>
<linearGradient id="paint2_linear_15_888" x1="37.9229" y1="35.1146" x2="12.048" y2="60.9782" gradientUnits="userSpaceOnUse">
<stop stop-color="#FF3A44"/>
<stop offset="1" stop-color="#C31162"/>
</linearGradient>
<linearGradient id="paint3_linear_15_888" x1="17.9925" y1="9.96706" x2="29.543" y2="21.5176" gradientUnits="userSpaceOnUse">
<stop stop-color="#32A071"/>
<stop offset="0.07" stop-color="#2DA771"/>
<stop offset="0.48" stop-color="#15CF74"/>
<stop offset="0.8" stop-color="#06E775"/>
<stop offset="1" stop-color="#00F076"/>
</linearGradient>
</defs>
</svg>
