<svg width="38" height="38" viewBox="0 0 38 38" fill="none" xmlns="http://www.w3.org/2000/svg">
<path d="M9.12448 26.9167H31.6667V7.91667H6.33335V29.1097L9.12448 26.9167ZM10.2197 30.0833L3.16669 35.625V6.33333C3.16669 5.45889 3.87558 4.75 4.75002 4.75H33.25C34.1245 4.75 34.8334 5.45889 34.8334 6.33333V28.5C34.8334 29.3745 34.1245 30.0833 33.25 30.0833H10.2197ZM17.4167 22.1667H20.5834V25.3333H17.4167V22.1667ZM13.5649 13.9546C14.0701 11.4146 16.3115 9.5 19 9.5C22.0606 9.5 24.5417 11.9811 24.5417 15.0417C24.5417 18.1023 22.0606 20.5833 19 20.5833H17.4167V17.4167H19C20.3117 17.4167 21.375 16.3533 21.375 15.0417C21.375 13.73 20.3117 12.6667 19 12.6667C17.8478 12.6667 16.8872 13.4872 16.6706 14.5758L13.5649 13.9546Z" fill="#0A0A37"/>
</svg>
