<svg width="30" height="30" viewBox="0 0 30 30" fill="none" xmlns="http://www.w3.org/2000/svg">
<rect x="0.248815" y="0.248815" width="28.8625" height="28.8625" rx="14.4313" fill="#EBF2FF"/>
<rect x="0.248815" y="0.248815" width="28.8625" height="28.8625" rx="14.4313" stroke="#2575FC" stroke-width="0.49763"/>
<path opacity="0.5" d="M15.8333 5.8335C15.8333 5.37326 15.4602 5.00016 15 5.00016C14.5398 5.00016 14.1667 5.37326 14.1667 5.8335H15.8333ZM14.1667 24.1668C14.1667 24.6271 14.5398 25.0002 15 25.0002C15.4602 25.0002 15.8333 24.6271 15.8333 24.1668H14.1667ZM19.1667 10.0002C19.6269 10.0002 20 9.62707 20 9.16683C20 8.70659 19.6269 8.3335 19.1667 8.3335V10.0002ZM10 12.0835H9.16667H10ZM12.9167 15.0002V15.8335V15.0002ZM17.0833 15.0002V14.1668V15.0002ZM17.0833 20.8335V21.6668V20.8335ZM10 20.0002C9.53976 20.0002 9.16667 20.3733 9.16667 20.8335C9.16667 21.2937 9.53976 21.6668 10 21.6668V20.0002ZM14.1667 5.8335V24.1668H15.8333V5.8335H14.1667ZM19.1667 8.3335H12.9167V10.0002H19.1667V8.3335ZM12.9167 8.3335C11.9221 8.3335 10.9683 8.72858 10.265 9.43185L11.4435 10.6104C11.8342 10.2197 12.3641 10.0002 12.9167 10.0002V8.3335ZM10.265 9.43185C9.56176 10.1351 9.16667 11.0889 9.16667 12.0835H10.8333C10.8333 11.531 11.0528 11.0011 11.4435 10.6104L10.265 9.43185ZM9.16667 12.0835C9.16667 13.0781 9.56176 14.0319 10.265 14.7351L11.4435 13.5566C11.0528 13.1659 10.8333 12.636 10.8333 12.0835H9.16667ZM10.265 14.7351C10.9683 15.4384 11.9221 15.8335 12.9167 15.8335V14.1668C12.3641 14.1668 11.8342 13.9473 11.4435 13.5566L10.265 14.7351ZM12.9167 15.8335H17.0833V14.1668H12.9167V15.8335ZM17.0833 15.8335C17.6359 15.8335 18.1658 16.053 18.5565 16.4437L19.735 15.2652C19.0317 14.5619 18.0779 14.1668 17.0833 14.1668V15.8335ZM18.5565 16.4437C18.9472 16.8344 19.1667 17.3643 19.1667 17.9168H20.8333C20.8333 16.9223 20.4382 15.9684 19.735 15.2652L18.5565 16.4437ZM19.1667 17.9168C19.1667 18.4694 18.9472 18.9993 18.5565 19.39L19.735 20.5685C20.4382 19.8652 20.8333 18.9114 20.8333 17.9168H19.1667ZM18.5565 19.39C18.1658 19.7807 17.6359 20.0002 17.0833 20.0002V21.6668C18.0779 21.6668 19.0317 21.2717 19.735 20.5685L18.5565 19.39ZM17.0833 20.0002H10V21.6668H17.0833V20.0002Z" fill="#2575FC"/>
</svg>
