<svg width="1420" height="704" viewBox="0 0 1420 704" fill="none" xmlns="http://www.w3.org/2000/svg">
<path d="M-408.734 856.073C-156.545 875.425 -6.34147 760.57 131.481 792.322C269.304 824.074 379.412 803.659 461.804 731.078C544.197 658.498 662.307 709.226 726.532 602.45C790.757 495.674 896.659 467.344 1044.24 517.461C1191.82 567.578 1304.57 552.137 1382.49 471.139C1460.41 390.141 1501.47 353.589 1505.66 361.483" stroke="#6A12CB" stroke-width="4.4798"/>
<path d="M-409 772.476C-89.2665 887.949 124.123 891.784 231.17 783.984C338.216 676.183 463.978 627.037 608.456 636.544C752.933 646.052 891.347 636.554 1023.7 608.052C1156.05 579.549 1276.1 512.519 1383.86 406.961C1491.62 301.402 1565.78 312.163 1606.33 439.241" stroke="#2575FC" stroke-width="4.48" stroke-dasharray="4.21 4.21"/>
</svg>
