<svg width="68" height="69" viewBox="0 0 68 69" fill="none" xmlns="http://www.w3.org/2000/svg">
<rect y="0.446045" width="68" height="68" rx="12" fill="url(#paint0_linear_15_779)"/>
<path d="M19.1615 45.6076C18.1462 46.6229 18.1462 48.2692 19.1615 49.2845C20.1769 50.2999 21.8231 50.2999 22.8385 49.2845L19.1615 45.6076ZM47 21.446H49.6C49.6 20.0101 48.4359 18.846 47 18.846V21.446ZM21 18.846C19.5641 18.846 18.4 20.0101 18.4 21.446C18.4 22.882 19.5641 24.046 21 24.046V18.846ZM44.4 47.446C44.4 48.882 45.5641 50.046 47 50.046C48.4359 50.046 49.6 48.882 49.6 47.446H44.4ZM22.8385 49.2845L48.8385 23.2845L45.1615 19.6076L19.1615 45.6076L22.8385 49.2845ZM21 24.046H47V18.846H21V24.046ZM44.4 21.446V47.446H49.6V21.446H44.4Z" fill="url(#paint1_linear_15_779)"/>
<defs>
<linearGradient id="paint0_linear_15_779" x1="70.4291" y1="57.0355" x2="2.57161" y2="42.8816" gradientUnits="userSpaceOnUse">
<stop stop-color="#F6EEFF"/>
<stop offset="1" stop-color="#EBF2FF"/>
</linearGradient>
<linearGradient id="paint1_linear_15_779" x1="47" y1="34.446" x2="21" y2="34.446" gradientUnits="userSpaceOnUse">
<stop stop-color="#6A12CB"/>
<stop offset="1" stop-color="#2575FC"/>
</linearGradient>
</defs>
</svg>
