<svg width="430" height="613" viewBox="0 0 430 613" fill="none" xmlns="http://www.w3.org/2000/svg">
<path d="M-282 284.18C-125.01 339.428 -9.98417 292.008 72.2055 335.661C154.395 379.313 227.854 385.09 292.581 352.991C357.309 320.892 423.738 373.248 482.742 316.321C541.746 259.394 613.88 259.424 699.143 316.41C784.407 373.396 858.698 382.784 922.016 344.574C985.335 306.364 1017.65 290.124 1018.98 295.856" stroke="#6A12CB" stroke-width="2.9477"/>
<path d="M-267.933 231.002C-84.3827 358.845 50.5898 397.624 136.985 347.339C223.38 297.054 311.681 287.235 401.888 317.882C492.096 348.53 581.686 366.066 670.658 370.49C759.63 374.913 847.35 352.756 933.818 304.018C1020.29 255.28 1065.58 274.747 1069.71 362.421" stroke="#2575FC" stroke-width="2.94783" stroke-dasharray="2.77 2.77"/>
<circle cx="8.08258" cy="363.858" r="7.23798" fill="white" stroke="#0A0A37" stroke-opacity="0.5" stroke-width="1.316"/>
<circle cx="260.754" cy="302.664" r="7.23798" fill="white" stroke="#0A0A37" stroke-opacity="0.5" stroke-width="1.316"/>
<circle cx="372.422" cy="341.194" r="7.23798" fill="white" stroke="#0A0A37" stroke-opacity="0.5" stroke-width="1.316"/>
<circle cx="116.652" cy="356.62" r="7.23798" fill="white" stroke="#0A0A37" stroke-opacity="0.5" stroke-width="1.316"/>
<path d="M371.763 357V430.696H308.596V442.54" stroke="#6A12CB" stroke-opacity="0.5" stroke-width="1.316"/>
<path d="M261.083 288.861V234.247H231.145" stroke="#2575FC" stroke-opacity="0.5" stroke-width="1.316"/>
</svg>
